Normalized EMG Linear Envelopes
nRows=154
nColumns=4

endheader
time	 med_gas_r	  soleus_r	 tib_ant_r	
2.37485	  0.108844	  0.062774	  0.022616	
2.43734	  0.103404	  0.066899	  0.023026	
2.49984	  0.099700	  0.070382	  0.023219	
2.56234	  0.097476	  0.072424	  0.023212	
2.62483	  0.096385	  0.072479	  0.023227	
2.68733	  0.095958	  0.070788	  0.023518	
2.74982	  0.094824	  0.068348	  0.024169	
2.81232	  0.093131	  0.066309	  0.025012	
2.87482	  0.092378	  0.065337	  0.025801	
2.93731	  0.092787	  0.065437	  0.026379	
2.99981	  0.094287	  0.066231	  0.026614	
3.0623	  0.096512	  0.067258	  0.026402	
3.1248	  0.097626	  0.068082	  0.025805	
3.1873	  0.097759	  0.068713	  0.025062	
3.24979	  0.099382	  0.069997	  0.024493	
3.31229	  0.101510	  0.072669	  0.024277	
3.37478	  0.100072	  0.075877	  0.024289	
3.43728	  0.094135	  0.077657	  0.024318	
3.49978	  0.086884	  0.076923	  0.024267	
3.56227	  0.082128	  0.074249	  0.024013	
3.62477	  0.081454	  0.071031	  0.023442	
3.68726	  0.083763	  0.068504	  0.022774	
3.74976	  0.087349	  0.067255	  0.022497	
3.81226	  0.090270	  0.067247	  0.022829	
3.87475	  0.090287	  0.068068	  0.023484	
3.93725	  0.088247	  0.069087	  0.023993	
3.99974	  0.087678	  0.069741	  0.024125	
4.06224	  0.089849	  0.070044	  0.024064	
4.12474	  0.093534	  0.070470	  0.024218	
4.18723	  0.097407	  0.071113	  0.024777	
4.24973	  0.100437	  0.071559	  0.025521	
4.31222	  0.101885	  0.071074	  0.026018	
4.37472	  0.100936	  0.068392	  0.025867	
4.43722	  0.098225	  0.062956	  0.024911	
4.49971	  0.099341	  0.057623	  0.023510	
4.56221	  0.114517	  0.059547	  0.022733	
4.6247	  0.154102	  0.078637	  0.024339	
4.6872	  0.222780	  0.123663	  0.030457	
4.7497	  0.314021	  0.195143	  0.042410	
4.81219	  0.410501	  0.281612	  0.058594	
4.87469	  0.492532	  0.365392	  0.074152	
4.93718	  0.546322	  0.429997	  0.084689	
4.99968	  0.568397	  0.464116	  0.090154	
5.06218	  0.566707	  0.467990	  0.094080	
5.12467	  0.554274	  0.455918	  0.099292	
5.18717	  0.540041	  0.444422	  0.104600	
5.24966	  0.528193	  0.438622	  0.106209	
5.31216	  0.521695	  0.432808	  0.102574	
5.37466	  0.520196	  0.419993	  0.096024	
5.43715	  0.518798	  0.399195	  0.089445	
5.49965	  0.515003	  0.375817	  0.083987	
5.56214	  0.512628	  0.356542	  0.079982	
5.62464	  0.514289	  0.344916	  0.077795	
5.68714	  0.515341	  0.340419	  0.077566	
5.74963	  0.510744	  0.339909	  0.078872	
5.81213	  0.503660	  0.341258	  0.080854	
5.87462	  0.501943	  0.345656	  0.082742	
5.93712	  0.509065	  0.355613	  0.084180	
5.99962	  0.521876	  0.373278	  0.085292	
6.06211	  0.535705	  0.400542	  0.086543	
6.12461	  0.549592	  0.435990	  0.088139	
6.1871	  0.563636	  0.471673	  0.089897	
6.2496	  0.571834	  0.496907	  0.091716	
6.3121	  0.565686	  0.505865	  0.093336	
6.37459	  0.545008	  0.501324	  0.093962	
6.43709	  0.518044	  0.492904	  0.092833	
6.49958	  0.496053	  0.489770	  0.090017	
6.56208	  0.489814	  0.491343	  0.086752	
6.62458	  0.499166	  0.487802	  0.084817	
6.68707	  0.507332	  0.472525	  0.085003	
6.74957	  0.499361	  0.450481	  0.086484	
6.81206	  0.483065	  0.433973	  0.087837	
6.87456	  0.478459	  0.433554	  0.088315	
6.93706	  0.491396	  0.451541	  0.088353	
6.99955	  0.510777	  0.481694	  0.089107	
7.06205	  0.525411	  0.515080	  0.091295	
7.12454	  0.533935	  0.543682	  0.094173	
7.18704	  0.542650	  0.557245	  0.095799	
7.24954	  0.555420	  0.547371	  0.094890	
7.31203	  0.565655	  0.522170	  0.092343	
7.37453	  0.565197	  0.502516	  0.090120	
7.43702	  0.559547	  0.498627	  0.088983	
7.49952	  0.560876	  0.505129	  0.088274	
7.56202	  0.566554	  0.513871	  0.087348	
7.62451	  0.563329	  0.519582	  0.086255	
7.68701	  0.552248	  0.523569	  0.085620	
7.7495	  0.548795	  0.532746	  0.086298	
7.812	  0.559355	  0.545628	  0.088298	
7.8745	  0.572694	  0.550274	  0.090115	
7.93699	  0.574527	  0.540807	  0.090167	
7.99949	  0.562427	  0.522332	  0.088474	
8.06198	  0.545299	  0.501841	  0.085935	
8.12448	  0.535494	  0.486270	  0.082729	
8.18698	  0.542594	  0.483570	  0.078798	
8.24947	  0.566294	  0.494960	  0.075250	
8.31197	  0.594245	  0.511398	  0.073770	
8.37446	  0.609759	  0.524770	  0.074832	
8.43696	  0.603657	  0.537385	  0.077278	
8.49946	  0.583549	  0.556439	  0.079706	
8.56195	  0.566779	  0.580661	  0.081686	
8.62445	  0.560250	  0.596184	  0.083252	
8.68694	  0.555863	  0.591857	  0.083918	
8.74944	  0.544692	  0.574973	  0.082970	
8.81194	  0.528418	  0.562296	  0.080573	
8.87443	  0.516639	  0.556891	  0.077755	
8.93693	  0.513017	  0.543608	  0.075214	
8.99942	  0.510536	  0.514143	  0.073160	
9.06192	  0.503197	  0.485450	  0.071928	
9.12442	  0.492927	  0.479496	  0.071947	
9.18691	  0.484473	  0.497792	  0.073693	
9.24941	  0.479388	  0.525434	  0.077207	
9.3119	  0.474938	  0.545091	  0.081237	
9.3744	  0.469288	  0.546902	  0.084053	
9.4369	  0.468261	  0.536300	  0.085031	
9.49939	  0.483276	  0.527282	  0.084635	
9.56189	  0.517151	  0.525806	  0.083425	
9.62438	  0.554245	  0.526012	  0.081527	
9.68688	  0.574366	  0.522017	  0.078685	
9.74938	  0.574791	  0.518007	  0.074816	
9.81187	  0.568351	  0.521079	  0.070744	
9.87437	  0.564562	  0.527895	  0.067953	
9.93686	  0.563558	  0.529005	  0.067539	
9.99936	  0.563976	  0.522882	  0.069587	
10.0619	  0.567617	  0.515685	  0.073245	
10.1244	  0.575334	  0.509366	  0.077184	
10.1868	  0.581991	  0.498337	  0.080089	
10.2493	  0.580752	  0.480586	  0.080980	
10.3118	  0.569686	  0.464804	  0.079458	
10.3743	  0.549834	  0.460312	  0.075900	
10.4368	  0.523358	  0.466219	  0.071226	
10.4993	  0.493025	  0.471803	  0.066161	
10.5618	  0.458409	  0.460079	  0.061125	
10.6243	  0.419973	  0.418167	  0.057108	
10.6868	  0.385371	  0.352048	  0.055375	
10.7493	  0.361907	  0.282893	  0.056095	
10.8118	  0.349499	  0.228176	  0.058579	
10.8743	  0.344511	  0.192259	  0.062131	
10.9368	  0.340838	  0.170106	  0.065542	
10.9993	  0.331707	  0.154494	  0.067081	
11.0618	  0.316907	  0.140592	  0.065579	
11.1243	  0.300831	  0.127827	  0.061155	
11.1868	  0.286345	  0.120018	  0.055443	
11.2493	  0.279339	  0.120221	  0.050689	
11.3118	  0.290057	  0.125682	  0.047739	
11.3743	  0.319107	  0.131034	  0.045632	
11.4368	  0.348649	  0.132843	  0.043311	
11.4993	  0.356282	  0.130279	  0.040875	
11.5618	  0.335536	  0.124903	  0.039053	
11.6243	  0.297953	  0.118628	  0.038009	
11.6868	  0.259098	  0.111479	  0.037103	
11.7492	  0.230619	  0.103286	  0.035639	
11.8117	  0.222530	  0.095932	  0.033524	
11.8742	  0.240725	  0.091818	  0.031238	
11.9367	  0.278281	  0.090755	  0.029139	
